<svg xmlns="http://www.w3.org/2000/svg" fill="#022c66" viewBox="0 0 234.4 265.7">
  <path xmlns="http://www.w3.org/2000/svg" d="M109.2 263.6 8 205.1a16 16 0 0 1-8-13.8V74.4a16 16 0 0 1 8-13.8L109.2 2a16 16 0 0 1 16 0l101.2 58.5a16 16 0 0 1 8 13.9v116.8a16 16 0 0 1-8 13.9l-101.2 58.4a16 16 0 0 1-16 0z"/>
  <g fill="#f6f6f6">
    <path d="M84 93.3c0 .2.2.3.3.4a2.8 2.8 0 1 0 3.5-4.3l-11-9a1.4 1.4 0 0 0-2 1.9l9.1 11zm-1.2 8.1a2.8 2.8 0 0 0 0-5.5l-14.4.1a1.4 1.4 0 0 0-.3 2.8l14.1 2.6h.6zm3.8 7A2.8 2.8 0 0 0 83 104l-11 9.3a1.4 1.4 0 0 0 1.6 2.3l12.5-7 .5-.4zm5-.5c-1.5-.2-3 .8-3.2 2.3l-2.3 14.2a1.4 1.4 0 0 0 2.6.7l5-13.4.2-.6c.3-1.5-.8-2.9-2.3-3.2zm14.7 14.7-4.7-13.5a2.8 2.8 0 1 0-5 2.3l7.2 12.4a1.4 1.4 0 0 0 2.5-1.2z"/>
    <path xmlns="http://www.w3.org/2000/svg" d="m165.8 117.4-15.3-12.8a7.9 7.9 0 0 0-8.6-1l-2.7 1.3a3 3 0 0 1-3.3-.4l-6-5.2c-.6-.6-1.7-.6-2.3 0l-1.8 1.9c-.6.6-1.5.6-2.1 0L121 99l-4-3.6-1-1-.6-.4-.3-.3-.4-.3-.1-.1-.3-.2-.4-.3-1.2-.8a25.8 25.8 0 0 0-2.3-.7 8.9 8.9 0 0 0-4.7.5l-.5.2-.4.2-.7.3-1.3.6a16093 16093 0 0 1-9.5 4.7 2.1 2.1 0 0 0 1.7 4l4.9-1.8 5-1.7 1.4-.5.7-.3h.4l.2-.1h1.4l.4.2.3.2.3.3.3.2v.2h.1l-.2-.2.1.1.3.3.5.6 1 1.1 3.5 4 2.4 2.7c.5.6.5 1.5 0 2l-2 1.9c-.6.6-.7 1.6 0 2.3l22 25.2a1.7 1.7 0 0 0 2.5 0l3-2.8c.5-.6 1.3-.6 1.9 0l6.6 6.6 6.8-6.8-6.6-6.7c-.5-.5-.5-1.4 0-2l2.9-2.8a1.7 1.7 0 0 0 0-2.5l-11.8-10.3a.4.4 0 0 1-.1-.3c0-.1 0-.2.2-.3l1.5-.8a1 1 0 0 1 1 .2l15.3 12.8a3.5 3.5 0 0 0 4.5-5.3zm-26.1 12.3-7.3-8.3 2.7-2.7a1.4 1.4 0 0 0-2-2l-2.5 2.6-1.7-2 2.4-2.4a1.4 1.4 0 0 0-2-2l-2.3 2.4-2.6-3 4.6-4.6 17.4 15.2-6.7 6.8z"/>
  </g>
  <path d="m54 181.6-3.4 3.5H42v-5h6V162h6v19.6zM76.2 162l3.5 3.5v16.1l-3.5 3.5H59.3V162h17zm-2.5 18v-13h-8.4v13h8.4zm42.5-18v5l-11.8 13h11.8v5.1H96.5v-5l11.8-13H96.5V162h19.7zm19.6 0h5.6v2.8l-7.7 20.3h-6.3l-7.7-20.3V162h5.5l5.3 15zm9.7 23.1v-19.6l3.5-3.5h13.4l3.5 3.5V185h-6v-6.5h-8.3v6.5h-6zm6-11.5h8.4V167h-8.3v6.5zm40.5-8.1v8l-3.5 3.5 3.5 5.3v2.8h-5.5l-4.9-7.8h-4.4v7.8h-6V162h17.3zm-6 6.7V167h-8.8v5h8.8z" fill="#f6f6f6"/>
</svg>