<svg width="234.375" height="265.74310128341455" viewBox="0 0 234.375 265.74310128341455" xmlns="http://www.w3.org/2000/svg" fill="#022c66">
<!--    <defs id="SvgjsDefs4613"></defs>-->
    <g id="SvgjsG4614"
       transform="matrix(4.725301111045653,0,0,4.725301111045653,0.0000347689931040783,0.019721259814305742)"
       fill="#022c66">
        <path xmlns="http://www.w3.org/2000/svg"
              d="M23.11 55.78L1.69 43.41A3.39 3.39 0 0 1 0 40.48V15.75a3.39 3.39 0 0 1 1.69-2.94L23.11.45a3.39 3.39 0 0 1 3.39 0l21.41 12.37a3.39 3.39 0 0 1 1.69 2.94v24.72a3.39 3.39 0 0 1-1.69 2.94L26.5 55.78a3.39 3.39 0 0 1-3.39 0z"></path>
    </g>
    <g id="SvgjsG4615"
       transform="matrix(1.4021055973614673,0,0,1.4021055973614673,45.26717470245157,41.29963321383116)" fill="#f6f6f6">
        <path fill="#f6f6f6"
              d="M27.56,37.118c0.078,0.093,0.172,0.189,0.269,0.269c0.843,0.695,2.09,0.574,2.784-0.269    c0.695-0.843,0.574-2.09-0.269-2.784l-7.899-6.507c-0.358-0.295-0.886-0.306-1.258,0c-0.422,0.347-0.482,0.971-0.135,1.392    L27.56,37.118z M26.75,42.887c1.092-0.01,1.97-0.904,1.96-1.996s-0.903-1.97-1.996-1.96l-10.234,0.093    c-0.464,0.004-0.875,0.335-0.963,0.808c-0.1,0.537,0.255,1.053,0.792,1.153l10.062,1.868    C26.491,42.876,26.625,42.889,26.75,42.887z M29.459,47.794c0.83-0.71,0.928-1.958,0.219-2.789    c-0.71-0.83-1.958-0.928-2.789-0.219l-7.78,6.649c-0.353,0.301-0.455,0.82-0.218,1.239c0.269,0.475,0.872,0.643,1.348,0.374    l8.909-5.036C29.253,47.952,29.364,47.876,29.459,47.794z M33.064,47.535c-1.077-0.18-2.097,0.548-2.277,1.625l-1.686,10.094    c-0.077,0.457,0.178,0.92,0.629,1.089c0.512,0.191,1.082-0.068,1.273-0.58l3.587-9.585c0.042-0.114,0.078-0.243,0.098-0.368    C34.869,48.734,34.141,47.715,33.064,47.535z M43.565,57.989l-3.413-9.648c-0.041-0.114-0.097-0.236-0.161-0.345    c-0.555-0.941-1.767-1.254-2.708-0.699c-0.941,0.555-1.254,1.767-0.699,2.708l5.197,8.816c0.235,0.4,0.728,0.591,1.182,0.43    C43.477,59.069,43.747,58.504,43.565,57.989z"></path>
        <path xmlns="http://www.w3.org/2000/svg" fill="#f6f6f6"
              d="M85.946,54.293L75.07,45.131c-1.718-1.448-4.126-1.732-6.134-0.724l-1.943,0.975  c-0.783,0.393-1.726,0.272-2.384-0.306l-4.226-3.71c-0.478-0.42-1.2-0.396-1.649,0.054l-1.291,1.291  c-0.41,0.41-1.069,0.431-1.503,0.046c-0.478-0.424-1.129-1.001-1.897-1.682c-0.835-0.74-1.808-1.604-2.852-2.529  c-0.261-0.231-0.526-0.466-0.794-0.704c-0.134-0.119-0.269-0.239-0.405-0.359l-0.204-0.181l-0.234-0.211l-0.109-0.083l-0.219-0.167  c-0.086-0.063-0.109-0.09-0.283-0.203c-0.283-0.185-0.587-0.372-0.875-0.516c-0.266-0.112-0.535-0.218-0.805-0.317  c-0.276-0.078-0.558-0.141-0.837-0.201c-1.13-0.195-2.299-0.07-3.328,0.329l-0.384,0.15l-0.247,0.12  c-0.163,0.08-0.325,0.159-0.486,0.237c-0.322,0.157-0.641,0.313-0.954,0.466c-1.253,0.612-2.423,1.183-3.425,1.672  c-2.005,0.979-3.341,1.631-3.341,1.631c-0.687,0.335-1.032,1.138-0.775,1.878c0.278,0.799,1.15,1.221,1.949,0.944  c0,0,1.405-0.488,3.512-1.22c1.054-0.366,2.283-0.793,3.6-1.251c0.329-0.114,0.664-0.231,1.003-0.348  c0.169-0.059,0.34-0.118,0.511-0.178l0.256-0.088l0.135-0.022c0.351-0.075,0.713-0.051,1.037,0.061  c0.078,0.04,0.157,0.068,0.234,0.099c0.07,0.051,0.14,0.094,0.212,0.13c0.032,0.037,0.035,0.058,0.066,0.065  c-0.01-0.025,0.094,0.083,0.15,0.136l0.197,0.192l0.098,0.096l0.006,0.006c-0.056-0.052,0.135,0.125-0.125-0.116l0.011,0.013  l0.023,0.026l0.045,0.051l0.181,0.204c0.12,0.136,0.24,0.271,0.359,0.405c0.238,0.268,0.473,0.534,0.704,0.794  c0.925,1.043,1.789,2.017,2.529,2.852c0.681,0.768,1.258,1.419,1.682,1.897c0.385,0.435,0.365,1.092-0.046,1.503l-1.291,1.291  c-0.45,0.45-0.473,1.171-0.054,1.649l15.775,17.97c0.22,0.251,0.534,0.399,0.868,0.41c0.333,0.011,0.657-0.117,0.892-0.353  l2.067-2.067c0.385-0.385,1.01-0.385,1.396,0l4.73,4.73l4.873-4.873l-4.73-4.73c-0.385-0.385-0.385-1.01,0-1.396l2.067-2.067  c0.236-0.236,0.364-0.559,0.353-0.892c-0.011-0.334-0.159-0.648-0.41-0.868l-8.361-7.34c-0.068-0.06-0.102-0.149-0.09-0.238  c0.011-0.089,0.067-0.167,0.147-0.208l1.095-0.549c0.247-0.124,0.544-0.089,0.755,0.089l10.877,9.162  c0.985,0.829,2.43,0.754,3.324-0.14c0.05-0.05,0.098-0.102,0.144-0.157C87.118,56.721,86.986,55.169,85.946,54.293z M67.33,63.02  l-5.178-5.899l1.894-1.894c0.384-0.384,0.384-1.008,0-1.392c-0.384-0.384-1.008-0.384-1.392,0l-1.804,1.804l-1.224-1.394  l1.719-1.719c0.384-0.384,0.384-1.008,0-1.392s-1.008-0.384-1.392,0l-1.628,1.628l-1.858-2.116l3.284-3.284l12.374,10.863  L67.33,63.02z"></path>
    </g>
    <g id="SvgjsG4616"
       transform="matrix(0.8089418754887501,0,0,0.8089418754887501,40.84377989949286,152.7551688706487)" fill="#f6f6f6">
        <path d="M16.286 35.7143 l-4.2857 4.2857 l-10.571 0 l0 -6.2857 l7.4286 0 l0 -22.286 l7.4286 0 l0 24.286 z M43.714 11.428999999999998 l4.2857 4.2857 l0 20 l-4.2857 4.2857 l-20.857 0 l0 -28.571 l20.857 0 z M40.571 33.7143 l0 -16 l-10.286 0 l0 16 l10.286 0 z M93.14314285714286 11.428999999999998 l0 6.2857 l-14.571 16 l14.571 0 l0 6.2857 l-24.286 0 l0 -6.2857 l14.571 -16 l-14.571 0 l0 -6.2857 l24.286 0 z M117.429 11.428999999999998 l6.8571 0 l0 3.4286 l-9.5429 25.143 l-7.7143 0 l-9.6 -25.143 l0 -3.4286 l6.8571 0 l6.5714 18.571 z M129.42852857142856 40 l0 -24.286 l4.2857 -4.2857 l16.571 0 l4.2857 4.2857 l0 24.286 l-7.4286 0 l0 -8 l-10.286 0 l0 8 l-7.4286 0 z M136.85742857142856 25.714 l10.286 0 l0 -8 l-10.286 0 l0 8 z M186.85671428571428 15.713999999999999 l0 10 l-4.2857 4.2857 l4.2857 6.5714 l0 3.4286 l-6.8571 0 l-5.9429 -9.7143 l-5.4857 0 l0 9.7143 l-7.4286 0 l0 -28.571 l21.429 0 z M179.42871428571428 24 l0 -6.2857 l-10.857 0 l0 6.2857 l10.857 0 z"></path>
    </g>
</svg>