<?xml version="1.0" standalone="no"?>
<!DOCTYPE svg PUBLIC "-//W3C//DTD SVG 20010904//EN"
        "http://www.w3.org/TR/2001/REC-SVG-20010904/DTD/svg10.dtd">
<svg version="1.0" xmlns="http://www.w3.org/2000/svg"
     width="417.000000pt" height="582.000000pt" viewBox="0 0 417.000000 582.000000"
     preserveAspectRatio="xMidYMid meet">

    <g transform="translate(0.000000,582.000000) scale(0.100000,-0.100000)"
       fill="#022c66" stroke="none">
        <path d="M1587 5480 c-237 -50 -455 -217 -567 -430 -70 -136 -91 -229 -97
-432 l-6 -178 -45 0 c-67 0 -118 -19 -168 -63 -88 -77 -89 -82 -89 -407 0
-284 0 -285 25 -334 42 -82 119 -132 220 -143 l60 -6 0 -364 c0 -372 2 -392
39 -420 24 -19 76 -15 102 6 l24 19 5 1024 c6 1143 1 1055 80 1216 61 122 163
223 290 286 157 77 158 77 834 74 l591 -3 85 -30 c201 -70 360 -230 428 -429
l27 -81 0 -1070 0 -1070 -31 -86 c-62 -174 -178 -306 -339 -384 -141 -69 -187
-75 -598 -75 -343 0 -355 -1 -381 -21 -32 -26 -36 -84 -7 -120 l19 -24 404 0
403 1 88 27 c302 93 503 298 593 602 15 52 18 116 21 493 l4 432 38 0 c97 0
188 53 239 138 l27 47 0 290 0 290 -29 53 c-48 86 -123 131 -222 132 l-52 0
-5 183 c-5 193 -18 260 -71 381 -98 222 -305 396 -561 472 -54 16 -119 18
-675 20 -571 3 -621 2 -703 -16z m-667 -1515 l0 -305 -30 0 c-16 0 -41 5 -55
12 -51 23 -55 47 -55 302 l0 234 26 31 c22 26 33 31 70 31 l44 0 0 -305z
m2781 292 c36 -27 39 -52 39 -296 0 -235 0 -240 -23 -266 -17 -20 -35 -28 -70
-32 l-47 -6 0 307 0 306 43 0 c23 0 49 -6 58 -13z"/>
        <path d="M1548 4690 c-76 -13 -148 -76 -168 -148 -14 -50 -13 -834 1 -885 13
-47 60 -102 110 -128 37 -18 65 -19 768 -19 427 0 740 4 754 9 40 16 99 73
118 116 17 37 19 76 19 466 l0 425 -25 51 c-33 65 -84 101 -161 113 -71 12
-1347 11 -1416 0z m549 -174 c-5 -12 -301 -482 -491 -779 -65 -101 -66 -95
-66 364 l0 398 22 15 c32 23 543 24 535 2z m491 0 c-2 -7 -120 -198 -263 -424
l-260 -411 -148 -1 -148 0 19 28 c15 21 369 578 496 780 l26 42 141 0 c113 0
140 -3 137 -14z m370 -2 l22 -15 0 -398 c0 -295 -3 -400 -12 -409 -9 -9 -102
-12 -355 -12 -189 0 -343 2 -343 5 0 3 120 194 266 425 l267 420 66 0 c44 0
74 -5 89 -16z"/>
        <path d="M1157 2568 c-19 -17 -40 -73 -86 -223 -34 -110 -61 -213 -61 -228 0
-66 92 -103 138 -54 27 28 155 437 146 463 -14 38 -47 64 -80 64 -20 0 -42 -9
-57 -22z"/>
        <path d="M585 2515 c-42 -41 -34 -71 78 -283 78 -149 109 -197 131 -209 54
-28 116 10 116 71 0 41 -190 408 -223 431 -32 22 -74 18 -102 -10z"/>
        <path d="M1437 2126 c-109 -57 -204 -112 -212 -122 -18 -23 -19 -73 -2 -95 7
-9 23 -21 35 -28 17 -9 22 -19 19 -33 -3 -11 -2 -31 4 -45 7 -20 4 -28 -18
-47 -37 -32 -38 -89 -2 -120 33 -28 431 -150 463 -142 52 13 77 65 56 116 -14
33 -42 46 -228 101 -91 27 -109 35 -93 43 29 13 177 -8 261 -38 88 -30 179
-89 247 -158 42 -44 258 -358 426 -620 l36 -57 -44 -31 c-62 -43 -84 -67 -111
-125 -29 -62 -31 -143 -5 -201 29 -63 258 -402 280 -414 33 -17 71 -11 96 15
46 46 37 71 -100 278 -130 196 -140 221 -109 266 18 25 225 164 262 176 52 16
75 -8 221 -230 77 -117 150 -220 163 -229 33 -23 75 -20 103 9 48 47 39 68
-127 319 -167 250 -190 274 -292 297 -50 11 -115 2 -178 -26 -14 -6 -55 50
-231 317 -178 268 -227 335 -289 394 -153 145 -344 223 -554 227 l-93 1 52 29
c29 16 91 48 138 72 101 51 133 85 125 130 -8 38 -33 63 -71 70 -25 5 -66 -14
-228 -99z"/>
        <path d="M229 2087 c-21 -16 -39 -51 -39 -76 0 -50 37 -69 255 -136 116 -36
218 -65 227 -65 27 0 67 42 74 76 11 60 -18 78 -246 149 -212 67 -244 73 -271
52z"/>
        <path d="M473 1620 c-114 -60 -201 -112 -213 -128 -37 -46 -9 -114 51 -127 23
-5 64 12 224 95 108 56 205 112 216 123 44 47 6 137 -58 137 -16 0 -113 -45
-220 -100z"/>
        <path d="M1115 1568 c-31 -17 -45 -39 -45 -73 0 -42 193 -410 226 -432 31 -20
88 -10 109 20 29 41 18 76 -87 275 -77 145 -109 197 -130 208 -32 17 -46 17
-73 2z"/>
        <path d="M832 1527 c-13 -14 -46 -102 -87 -234 -70 -226 -72 -243 -23 -277 12
-9 35 -16 50 -16 54 0 72 32 137 245 34 110 61 214 61 231 0 66 -92 100 -138
51z"/>
    </g>
</svg>
