<?xml version="1.0" standalone="no"?>
<!DOCTYPE svg PUBLIC "-//W3C//DTD SVG 20010904//EN"
 "http://www.w3.org/TR/2001/REC-SVG-20010904/DTD/svg10.dtd">
<svg version="1.0" xmlns="http://www.w3.org/2000/svg"
 width="300pt" height="196pt" viewBox="0 0 300 196"
 preserveAspectRatio="xMidYMid meet">
<metadata>
Created by potrace 1.10, written by Peter Selinger 2001-2011
</metadata>
<g transform="translate(0.000000,196.000000) scale(0.100000,-0.100000)"
fill="#022c66" stroke="none">
<path d="M1369 1841 c-114 -37 -208 -117 -291 -251 -60 -95 -81 -154 -73 -201
5 -30 1 -43 -27 -80 -24 -31 -44 -46 -70 -52 -23 -5 -46 -22 -66 -46 -19 -24
-45 -42 -72 -50 -77 -23 -400 -378 -400 -439 0 -12 9 -17 28 -17 15 0 43 -4
62 -8 34 -7 35 -6 14 11 -12 9 -30 22 -40 28 -16 9 -15 14 19 65 57 86 288
316 325 324 17 3 53 26 80 50 26 23 64 50 84 58 56 24 95 88 100 168 3 55 11
78 48 145 26 45 73 107 110 145 124 125 242 155 414 105 48 -14 105 -26 125
-26 29 0 44 -7 65 -31 15 -17 29 -38 31 -47 2 -9 12 -38 23 -64 35 -80 72
-207 72 -247 0 -42 -18 -64 -47 -59 -10 1 -22 0 -28 -4 -5 -3 -84 -38 -175
-78 -162 -71 -190 -88 -190 -119 0 -10 5 -6 13 9 21 42 392 180 415 155 14
-16 -4 -203 -22 -230 -20 -30 -99 -68 -210 -100 -117 -33 -158 -33 -185 1 -12
15 -21 34 -21 43 -1 14 -2 14 -14 -1 -12 -16 -18 -13 -65 36 -49 52 -61 85
-43 112 13 20 50 34 92 34 27 0 93 21 193 61 145 59 186 79 159 79 -7 0 -72
-21 -145 -46 -73 -25 -152 -48 -177 -51 -112 -12 -162 -42 -162 -96 0 -45 21
-83 75 -136 32 -30 51 -42 62 -37 13 5 16 2 11 -11 -4 -10 -4 -14 0 -11 3 4
15 -1 26 -12 11 -10 32 -20 46 -23 31 -6 130 14 219 45 35 12 66 19 70 15 12
-12 13 -151 2 -179 -15 -36 -116 -104 -184 -123 -62 -18 -135 -14 -194 12 -45
20 -41 9 -60 167 -11 94 -31 139 -59 134 -15 -3 -35 -51 -68 -165 -2 -7 -9
-10 -16 -8 -14 6 -96 147 -118 202 -6 18 -18 37 -26 44 -16 14 -8 -17 29 -109
27 -65 132 -232 146 -232 4 0 18 59 31 131 13 72 27 124 31 117 11 -20 32
-226 25 -252 -5 -21 1 -27 57 -52 53 -25 74 -29 147 -29 75 0 93 4 150 31 36
17 86 52 111 77 l46 46 -5 106 c-5 105 -4 107 22 134 35 36 45 83 46 197 0 72
3 94 16 105 13 10 15 26 11 69 -9 105 -107 360 -157 410 -14 14 -28 18 -48 14
-18 -4 -71 6 -139 25 -124 35 -174 38 -254 12z"/>
<path d="M1070 1322 c0 -4 13 -15 29 -25 37 -22 61 -73 61 -133 0 -54 16 -50
23 6 5 47 -18 110 -51 137 -27 22 -62 31 -62 15z"/>
<path d="M1040 1314 c0 -5 13 -28 29 -50 16 -21 37 -64 47 -94 l19 -55 3 42
c4 52 -21 108 -57 131 -14 9 -29 21 -33 27 -5 7 -8 7 -8 -1z"/>
<path d="M1788 1227 c-43 -12 -78 -24 -77 -27 1 -8 136 -120 153 -126 11 -4
17 11 26 65 13 80 11 105 -10 107 -8 1 -50 -8 -92 -19z m72 -57 c0 -37 -18
-39 -49 -6 -24 25 -18 34 27 35 18 1 22 -4 22 -29z"/>
<path d="M1623 1170 c-24 -10 -43 -23 -42 -27 0 -4 36 -38 80 -74 l80 -66 44
16 c25 9 45 19 45 22 0 6 -155 149 -162 149 -1 0 -22 -9 -45 -20z m114 -90
c14 -17 17 -30 6 -30 -16 0 -93 82 -87 92 6 9 50 -25 81 -62z"/>
<path d="M1551 1069 c-16 -47 -14 -109 4 -109 18 0 119 21 124 26 4 3 -109
114 -115 114 -1 0 -7 -14 -13 -31z"/>
<path d="M1071 1018 c-1 -29 3 -48 10 -48 6 0 8 -7 5 -17 -4 -9 12 -54 39
-109 25 -51 45 -95 45 -98 0 -10 -59 -23 -113 -25 -108 -5 -198 61 -221 160
-6 26 -45 83 -52 76 -2 -2 5 -29 16 -60 11 -31 20 -64 20 -73 0 -31 49 -82
107 -110 68 -34 157 -38 245 -11 l57 17 -36 58 c-40 62 -89 171 -109 242 l-12
45 -1 -47z"/>
<path d="M2195 938 c-4 -18 -31 -137 -61 -265 -30 -127 -54 -241 -54 -253 0
-20 1 -21 18 -4 16 17 17 17 20 -2 5 -24 41 -64 59 -64 7 0 22 -9 33 -20 11
-11 27 -20 35 -20 13 0 14 -4 5 -21 -7 -11 -9 -23 -6 -26 3 -3 53 29 112 71
58 43 112 80 120 83 8 3 14 9 14 13 0 4 -62 -16 -137 -46 -76 -30 -139 -54
-140 -54 -2 0 53 65 122 144 69 80 125 147 125 151 0 3 -66 -55 -147 -128 -82
-74 -149 -133 -151 -132 -2 2 10 45 27 96 17 51 29 95 26 97 -2 2 -20 -33 -41
-77 -20 -45 -38 -80 -40 -79 -1 2 6 62 16 133 44 298 60 428 56 432 -2 2 -7
-11 -11 -29z"/>
<path d="M761 893 c-2 -96 -4 -98 -67 -64 -29 17 -62 29 -74 28 -11 -1 -20 -2
-20 -3 0 -1 29 -20 63 -43 35 -23 74 -52 87 -66 13 -14 27 -25 32 -25 13 0 8
151 -7 195 l-13 40 -1 -62z"/>
<path d="M1991 661 c-1 -246 0 -254 17 -237 18 15 20 15 32 -11 14 -27 14 -27
18 -5 4 23 -42 394 -57 467 -6 26 -9 -46 -10 -214z"/>
<path d="M590 830 c0 -6 9 -24 21 -39 l21 -29 -43 -55 c-47 -59 -51 -61 -179
-101 -70 -22 -91 -34 -116 -64 l-31 -37 66 32 c36 18 103 42 148 54 79 21 82
23 118 75 41 59 53 64 80 34 10 -11 22 -20 27 -20 12 0 -18 68 -48 107 -28 36
-64 61 -64 43z"/>
<path d="M1881 709 c-1 -17 36 -269 45 -308 5 -22 6 -22 23 -7 10 9 21 13 24
9 4 -3 7 0 7 8 -1 22 -99 316 -99 298z"/>
<path d="M313 664 c-18 -9 -33 -20 -33 -23 0 -4 -23 -34 -51 -66 -72 -86 -89
-122 -89 -197 0 -78 24 -132 83 -191 69 -70 93 -74 239 -38 68 16 139 33 158
36 39 8 60 22 60 39 0 6 -11 29 -25 51 l-25 40 2 -45 3 -45 -152 -34 -153 -34
-36 19 c-45 24 -81 66 -105 122 -40 92 -18 159 87 269 68 71 109 93 171 93 12
0 25 5 28 10 10 17 -126 12 -162 -6z"/>
<path d="M592 623 c-32 -52 -47 -93 -57 -162 -11 -66 15 -48 35 25 18 66 41
114 63 132 11 10 21 10 43 1 16 -7 34 -12 39 -11 6 1 21 -7 34 -17 22 -17 23
-21 11 -55 -6 -21 -9 -40 -5 -44 4 -4 10 0 13 8 3 8 22 32 43 53 32 32 35 39
21 44 -9 4 -55 22 -102 40 -47 18 -90 33 -96 33 -7 0 -25 -21 -42 -47z"/>
<path d="M1145 539 c-89 -87 -93 -92 -83 -119 5 -16 16 -34 24 -41 12 -9 12
-6 3 21 -10 27 -9 36 8 57 10 14 28 32 40 40 19 13 25 10 67 -27 26 -22 55
-40 65 -40 25 0 75 55 67 75 -5 14 -9 13 -35 -6 -33 -24 -65 -19 -82 12 -11
22 9 65 37 76 19 7 18 29 -2 37 -12 4 -44 -21 -109 -85z"/>
<path d="M1750 628 c0 -6 109 -258 114 -265 1 -1 15 1 30 5 l28 8 -86 129
c-47 72 -86 127 -86 123z"/>
<path d="M1326 606 c-22 -8 -53 -29 -70 -45 -28 -29 -29 -32 -14 -47 15 -16
19 -15 47 9 66 55 123 48 277 -34 96 -51 113 -57 124 -44 7 8 10 21 7 29 -8
20 -246 135 -292 141 -23 3 -57 -1 -79 -9z"/>
<path d="M881 578 c-41 -20 -117 -95 -107 -105 3 -3 36 15 73 41 64 44 72 46
136 46 67 0 80 -7 52 -30 -8 -7 -15 -19 -15 -26 0 -8 -4 -14 -8 -14 -5 0 -14
-10 -21 -22 -10 -19 -8 -30 8 -63 10 -22 31 -51 45 -64 35 -32 33 -41 -8 -41
-64 0 -46 -17 30 -30 120 -21 174 4 190 87 l6 32 -67 -36 c-56 -29 -71 -34
-90 -25 -28 13 -85 93 -85 120 0 18 65 86 123 127 l27 20 -124 1 c-106 2 -131
-1 -165 -18z"/>
<path d="M1660 586 c0 -5 22 -47 49 -95 26 -47 65 -116 85 -153 41 -75 62 -88
52 -34 -5 24 -3 36 6 39 10 3 9 8 -3 23 -8 10 -51 62 -94 114 -100 121 -95
115 -95 106z"/>
<path d="M465 531 c-54 -31 -170 -143 -125 -121 14 7 45 27 70 45 73 52 78 52
86 -5 9 -68 24 -63 24 8 0 31 3 67 6 80 8 29 -1 28 -61 -7z"/>
<path d="M308 508 c-33 -11 -38 -33 -7 -23 20 7 21 5 15 -31 l-6 -39 25 30
c13 17 37 40 52 52 l28 23 -40 -1 c-22 0 -52 -5 -67 -11z"/>
<path d="M1610 359 c150 -136 161 -144 171 -126 6 9 20 17 32 17 18 0 19 2 7
14 -16 15 -249 146 -259 146 -3 0 19 -23 49 -51z"/>
<path d="M1417 362 c12 -9 85 -55 162 -102 l140 -85 -42 -6 c-23 -3 -148 -14
-277 -23 -129 -10 -248 -20 -264 -24 -15 -4 373 -7 864 -7 491 0 879 3 864 7
-16 4 -157 16 -314 29 -208 16 -285 19 -288 10 -2 -6 -8 -9 -13 -5 -5 3 -9 0
-9 -6 0 -6 -4 -9 -9 -5 -13 8 -376 9 -389 1 -6 -3 -14 -2 -17 4 -4 6 -21 8
-41 4 -26 -5 -35 -2 -40 10 -4 10 0 22 11 30 14 10 15 14 4 18 -8 4 -93 43
-189 87 -96 44 -165 73 -153 63z"/>
<path d="M2473 308 c-199 -52 -230 -63 -218 -75 11 -10 19 -11 34 -3 25 13 31
13 31 -1 0 -5 -3 -8 -7 -6 -5 3 -16 -6 -26 -19 -10 -13 -15 -24 -11 -24 3 0
86 33 183 74 97 41 193 81 214 90 20 8 37 17 37 20 0 4 -1 6 -2 5 -2 -1 -107
-28 -235 -61z"/>
<path d="M650 311 c0 -15 96 -99 141 -122 50 -25 181 -39 193 -20 4 6 0 11
-11 11 -10 1 -31 7 -48 14 -27 11 -24 12 46 12 57 -1 81 3 104 18 l29 19 -65
16 c-64 17 -85 17 -60 2 18 -12 5 -31 -21 -31 -11 0 -35 -7 -54 -16 -44 -21
-81 -9 -171 57 -68 49 -83 57 -83 40z"/>
</g>
</svg>
